<?xml version="1.0" encoding="UTF-8"?>
<svg xmlns="http://www.w3.org/2000/svg" xmlns:xlink="http://www.w3.org/1999/xlink" width="136pt" height="136pt" viewBox="0 0 136 136" version="1.1">
<g id="surface1">
<path style=" stroke:none;fill-rule:nonzero;fill:rgb(0%,0%,0%);fill-opacity:1;" d="M 61.382812 5.796875 C 61.382812 6.015625 61.203125 6.195312 60.980469 6.195312 C 60.757812 6.195312 60.578125 6.015625 60.578125 5.796875 C 60.578125 5.574219 60.757812 5.390625 60.980469 5.390625 C 61.203125 5.390625 61.382812 5.574219 61.382812 5.796875 Z M 61.382812 5.796875 "/>
<path style=" stroke:none;fill-rule:nonzero;fill:rgb(0%,0%,0%);fill-opacity:1;" d="M 62.554688 5.796875 C 62.554688 6.015625 62.375 6.195312 62.15625 6.195312 C 61.929688 6.195312 61.75 6.015625 61.75 5.796875 C 61.75 5.574219 61.929688 5.390625 62.15625 5.390625 C 62.375 5.390625 62.554688 5.574219 62.554688 5.796875 Z M 62.554688 5.796875 "/>
<path style=" stroke:none;fill-rule:nonzero;fill:rgb(0%,0%,0%);fill-opacity:1;" d="M 63.726562 5.796875 C 63.726562 6.015625 63.546875 6.195312 63.328125 6.195312 C 63.101562 6.195312 62.921875 6.015625 62.921875 5.796875 C 62.921875 5.574219 63.101562 5.390625 63.328125 5.390625 C 63.546875 5.390625 63.726562 5.574219 63.726562 5.796875 Z M 63.726562 5.796875 "/>
<path style=" stroke:none;fill-rule:nonzero;fill:rgb(0%,0%,0%);fill-opacity:1;" d="M 64.898438 5.796875 C 64.898438 6.015625 64.71875 6.195312 64.496094 6.195312 C 64.273438 6.195312 64.09375 6.015625 64.09375 5.796875 C 64.09375 5.574219 64.273438 5.390625 64.496094 5.390625 C 64.71875 5.390625 64.898438 5.574219 64.898438 5.796875 Z M 64.898438 5.796875 "/>
<path style=" stroke:none;fill-rule:nonzero;fill:rgb(0%,0%,0%);fill-opacity:1;" d="M 66.070312 5.796875 C 66.070312 6.015625 65.890625 6.195312 65.671875 6.195312 C 65.449219 6.195312 65.269531 6.015625 65.269531 5.796875 C 65.269531 5.574219 65.449219 5.390625 65.671875 5.390625 C 65.890625 5.390625 66.070312 5.574219 66.070312 5.796875 Z M 66.070312 5.796875 "/>
<path style=" stroke:none;fill-rule:nonzero;fill:rgb(0%,0%,0%);fill-opacity:1;" d="M 67.246094 5.796875 C 67.246094 6.015625 67.066406 6.195312 66.84375 6.195312 C 66.625 6.195312 66.445312 6.015625 66.445312 5.796875 C 66.445312 5.574219 66.625 5.390625 66.84375 5.390625 C 67.066406 5.390625 67.246094 5.574219 67.246094 5.796875 Z M 67.246094 5.796875 "/>
<path style=" stroke:none;fill-rule:nonzero;fill:rgb(0%,0%,0%);fill-opacity:1;" d="M 68.417969 5.796875 C 68.417969 6.015625 68.238281 6.195312 68.015625 6.195312 C 67.796875 6.195312 67.613281 6.015625 67.613281 5.796875 C 67.613281 5.574219 67.796875 5.390625 68.015625 5.390625 C 68.238281 5.390625 68.417969 5.574219 68.417969 5.796875 Z M 68.417969 5.796875 "/>
<path style=" stroke:none;fill-rule:nonzero;fill:rgb(0%,0%,0%);fill-opacity:1;" d="M 69.585938 5.796875 C 69.585938 6.015625 69.40625 6.195312 69.1875 6.195312 C 68.964844 6.195312 68.785156 6.015625 68.785156 5.796875 C 68.785156 5.574219 68.964844 5.390625 69.1875 5.390625 C 69.40625 5.390625 69.585938 5.574219 69.585938 5.796875 Z M 69.585938 5.796875 "/>
<path style=" stroke:none;fill-rule:nonzero;fill:rgb(0%,0%,0%);fill-opacity:1;" d="M 70.757812 5.796875 C 70.757812 6.015625 70.578125 6.195312 70.359375 6.195312 C 70.136719 6.195312 69.957031 6.015625 69.957031 5.796875 C 69.957031 5.574219 70.136719 5.390625 70.359375 5.390625 C 70.578125 5.390625 70.757812 5.574219 70.757812 5.796875 Z M 70.757812 5.796875 "/>
<path style=" stroke:none;fill-rule:nonzero;fill:rgb(0%,0%,0%);fill-opacity:1;" d="M 71.9375 5.796875 C 71.9375 6.015625 71.757812 6.195312 71.539062 6.195312 C 71.316406 6.195312 71.136719 6.015625 71.136719 5.796875 C 71.136719 5.574219 71.316406 5.390625 71.539062 5.390625 C 71.757812 5.390625 71.9375 5.574219 71.9375 5.796875 Z M 71.9375 5.796875 "/>
<path style=" stroke:none;fill-rule:nonzero;fill:rgb(0%,0%,0%);fill-opacity:1;" d="M 73.109375 5.796875 C 73.109375 6.015625 72.929688 6.195312 72.710938 6.195312 C 72.484375 6.195312 72.304688 6.015625 72.304688 5.796875 C 72.304688 5.574219 72.484375 5.390625 72.710938 5.390625 C 72.929688 5.390625 73.109375 5.574219 73.109375 5.796875 Z M 73.109375 5.796875 "/>
<path style=" stroke:none;fill-rule:nonzero;fill:rgb(0%,0%,0%);fill-opacity:1;" d="M 74.28125 5.796875 C 74.28125 6.015625 74.101562 6.195312 73.882812 6.195312 C 73.65625 6.195312 73.476562 6.015625 73.476562 5.796875 C 73.476562 5.574219 73.65625 5.390625 73.882812 5.390625 C 74.101562 5.390625 74.28125 5.574219 74.28125 5.796875 Z M 74.28125 5.796875 "/>
<path style=" stroke:none;fill-rule:nonzero;fill:rgb(0%,0%,0%);fill-opacity:1;" d="M 75.453125 5.796875 C 75.453125 6.015625 75.273438 6.195312 75.050781 6.195312 C 74.828125 6.195312 74.648438 6.015625 74.648438 5.796875 C 74.648438 5.574219 74.828125 5.390625 75.050781 5.390625 C 75.273438 5.390625 75.453125 5.574219 75.453125 5.796875 Z M 75.453125 5.796875 "/>
<path style=" stroke:none;fill-rule:nonzero;fill:rgb(0%,0%,0%);fill-opacity:1;" d="M 76.625 5.796875 C 76.625 6.015625 76.445312 6.195312 76.226562 6.195312 C 76.003906 6.195312 75.824219 6.015625 75.824219 5.796875 C 75.824219 5.574219 76.003906 5.390625 76.226562 5.390625 C 76.445312 5.390625 76.625 5.574219 76.625 5.796875 Z M 76.625 5.796875 "/>
<path style=" stroke:none;fill-rule:nonzero;fill:rgb(0%,0%,0%);fill-opacity:1;" d="M 98.230469 0 L 37.894531 0 C 33.015625 0 29.066406 3.953125 29.066406 8.828125 L 29.066406 127.292969 C 29.066406 132.171875 33.015625 136.121094 37.894531 136.121094 L 98.226562 136.121094 C 103.105469 136.121094 107.054688 132.171875 107.054688 127.292969 L 107.054688 8.828125 C 107.058594 3.953125 103.109375 0 98.230469 0 Z M 92.058594 5.242188 C 92.59375 5.242188 93.03125 5.679688 93.03125 6.21875 C 93.03125 6.757812 92.59375 7.195312 92.058594 7.195312 C 91.515625 7.195312 91.082031 6.757812 91.082031 6.21875 C 91.078125 5.679688 91.515625 5.242188 92.058594 5.242188 Z M 57.617188 4.398438 L 79.421875 4.398438 C 80.195312 4.398438 80.820312 5.023438 80.820312 5.792969 C 80.820312 6.5625 80.195312 7.183594 79.421875 7.183594 L 57.617188 7.183594 C 56.847656 7.183594 56.226562 6.558594 56.226562 5.792969 C 56.226562 5.023438 56.847656 4.398438 57.617188 4.398438 Z M 48.722656 130.316406 L 46.578125 130.316406 C 46.433594 130.316406 46.320312 130.199219 46.320312 130.054688 C 46.320312 129.914062 46.433594 129.796875 46.578125 129.796875 L 48.722656 129.796875 C 48.867188 129.796875 48.984375 129.914062 48.984375 130.054688 C 48.984375 130.199219 48.867188 130.316406 48.722656 130.316406 Z M 48.722656 129.265625 L 46.578125 129.265625 C 46.433594 129.265625 46.320312 129.15625 46.320312 129.007812 C 46.320312 128.867188 46.433594 128.75 46.578125 128.75 L 48.722656 128.75 C 48.867188 128.75 48.984375 128.867188 48.984375 129.007812 C 48.984375 129.15625 48.867188 129.265625 48.722656 129.265625 Z M 50.53125 129.949219 C 50.53125 130.257812 50.28125 130.507812 49.976562 130.507812 C 49.664062 130.507812 49.414062 130.257812 49.414062 129.949219 L 49.414062 128.109375 L 45.882812 128.109375 L 45.882812 129.949219 C 45.882812 130.257812 45.632812 130.507812 45.328125 130.507812 C 45.015625 130.507812 44.765625 130.257812 44.765625 129.949219 L 44.765625 127.546875 C 44.765625 127.242188 45.015625 126.992188 45.328125 126.992188 L 49.976562 126.992188 C 50.28125 126.992188 50.53125 127.242188 50.53125 127.546875 Z M 75.050781 129.777344 C 75.050781 130.996094 74.0625 131.984375 72.84375 131.984375 L 63.1875 131.984375 C 61.964844 131.984375 60.976562 130.996094 60.976562 129.777344 L 60.976562 127.84375 C 60.976562 126.625 61.964844 125.640625 63.1875 125.640625 L 72.84375 125.640625 C 74.0625 125.640625 75.050781 126.625 75.050781 127.84375 Z M 89.464844 130.613281 L 87.710938 130.613281 C 87.40625 130.613281 87.15625 130.363281 87.15625 130.054688 C 87.15625 129.746094 87.40625 129.5 87.710938 129.5 L 89.464844 129.5 C 89.84375 129.5 90.148438 129.203125 90.148438 128.84375 C 90.148438 128.484375 89.84375 128.1875 89.464844 128.1875 L 87.984375 128.1875 C 87.929688 128.265625 87.863281 128.304688 87.738281 128.3125 C 87.707031 128.328125 87.65625 128.304688 87.617188 128.289062 L 86.703125 127.90625 C 86.59375 127.859375 86.523438 127.75 86.523438 127.632812 C 86.523438 127.511719 86.59375 127.398438 86.703125 127.355469 L 87.617188 126.96875 C 87.726562 126.921875 87.855469 126.949219 87.941406 127.035156 C 87.953125 127.046875 87.96875 127.058594 87.976562 127.074219 L 89.464844 127.074219 C 90.457031 127.074219 91.261719 127.867188 91.261719 128.84375 C 91.261719 129.820312 90.457031 130.613281 89.464844 130.613281 Z M 101.171875 122.878906 L 34.214844 122.878906 L 34.214844 13.609375 L 101.171875 13.609375 Z M 101.171875 122.878906 "/>
</g>
</svg>
